<svg xmlns="http://www.w3.org/2000/svg" viewBox="0 0 32 32">
  <rect width="32" height="32" rx="7" fill="#12151a"/>
  <path
    d="M16 12.6c-1.3-2.1-3.6-3.1-5.8-2.7-3.3.6-5.6 3.9-5.1 8.1.5 4.7 3.9 10 6.9 10 1.1 0 1.6-.5 2.8-.5s1.7.5 2.8.5c2.6 0 5.6-4.2 6.4-8 .9-4-.8-7.3-3.6-7.9-2-.4-3.9.4-5.1 1.4-.1.1-.2-.1-.3-.9z"
    fill="#f2a93b"
  />
  <path d="M15.3 11.3c-.4-2.1.4-4.2 2.1-5.6" stroke="#6b4a2f" stroke-width="1.7" stroke-linecap="round" fill="none"/>
  <path d="M17.3 6.5c.9-.8 2.2-1.1 3.4-.7" stroke="#45b26b" stroke-width="1.7" stroke-linecap="round" fill="none"/>
</svg>
